<?xml version="1.0" encoding="utf-8"?>
<!-- Generator: Adobe Illustrator 21.0.0, SVG Export Plug-In . SVG Version: 6.00 Build 0)  -->
<svg version="1.1" id="Layer_1" xmlns="http://www.w3.org/2000/svg" xmlns:xlink="http://www.w3.org/1999/xlink" x="0px" y="0px"
	 viewBox="0 0 1337 350.6" style="enable-background:new 0 0 1337 350.6;" xml:space="preserve">
<style type="text/css">
	.st0{fill:#FFFFFF;}
</style>
<g>
	<g>
		<path class="st0" d="M1168.9,196.3c-2.8-5.8-7.3-10.6-13.4-14.3c-3.9-2.3-13-6.7-27.2-13.1c-4.6-2.1-8.4-4.3-11.3-6.5
			c-3-2.3-5-4.6-6.1-7.1c-1.1-2.4-1.8-4.4-2.1-6c-0.3-1.6-0.4-3.4-0.3-5.5c0.2-6,2.6-11.3,7.1-15.8s10.6-6.4,18.2-5.8
			c7.3,0.5,13.4,3.3,18.4,8.6c5,5.2,8.3,11.7,9.8,19.4h1.2l0.2-17.3c-7-8.4-16.9-12.7-29.9-12.9c-10-0.2-17.8,2.4-23.5,7.9
			s-8.6,11.8-8.6,18.9c0,6.3,1.9,11.8,5.7,16.7c3.8,4.8,10.9,9.4,21.2,13.7c13.3,5.6,22.8,10.8,28.3,15.6s8.3,11.4,8.3,19.6
			c0,8.3-2.8,14.9-8.4,19.9s-13.3,7.2-23,6.6c-9.9-0.6-18.1-4.1-24.6-10.5c-6.6-6.4-10.6-14.5-12.2-24.3h-1.7v22.3
			c8,8.7,18.3,13.8,30.9,15.2c12.8,1.4,22.9-0.3,30.5-5.1c7.6-4.8,12.3-11.5,14.2-20.2C1172.3,208.8,1171.7,202.1,1168.9,196.3z"/>
		<path class="st0" d="M355.8,219.5c-1.5,2.4-2.7,4.3-3.9,5.6c-1.1,1.3-3.1,2.9-5.8,4.9c-2.7,2-6.4,3.4-11,4.4
			c-4.6,0.9-10.1,1.4-16.6,1.4h-25.7v-53.6h14.8c5,0.1,8.8,1,11.2,2.7s3.9,4.7,4.5,9.2c0.1,0.8,0.2,1.5,0.2,2.1h1.7l-0.2-15
			c0-3.1,0.1-8.2,0.2-15.2h-1.7l-0.2,2.1c-0.7,4.5-2.2,7.6-4.5,9.3c-2.4,1.6-6.1,2.5-11.1,2.6h-14.8v-53.6l22.5,0.2
			c3.1,0,6.1,0.2,8.8,0.7c2.7,0.5,5.1,1,7,1.7c1.9,0.6,3.7,1.5,5.5,2.5c1.7,1,3.1,2,4.2,2.8s2.1,1.8,3,3.1c1,1.2,1.6,2.2,2,2.8
			s0.8,1.5,1.3,2.5l0.8,1.4l1.3-0.7l-7.6-19l-51.8-0.3c-4.1,0-9.2-0.1-15.3-0.2v1.6l2.5,0.2c3.5,0.5,5.9,1.4,7.1,2.7
			c1.3,1.3,2,4.2,2.1,8.6c0,15.9,0.1,29.7,0.2,41.2c0.1,6.6,0.1,15.7,0,27.1c-0.1,11.5-0.2,18.4-0.2,20.7c-0.1,4.4-0.8,7.3-2.1,8.6
			c-1.3,1.3-3.7,2.2-7.1,2.7c-0.8,0.1-1.6,0.2-2.5,0.2v1.6l15.3-0.2l58.7,0.2l9.2-19.5l-1.3-0.9
			C356.4,218.7,356.1,219.1,355.8,219.5z"/>
		<path class="st0" d="M808.2,219.5c-1.5,2.4-2.7,4.3-3.9,5.6c-1.1,1.3-3.1,2.9-5.8,4.9s-6.4,3.4-11,4.4c-4.6,0.9-10.1,1.4-16.6,1.4
			h-25.7v-53.6H760c5,0.1,8.8,1,11.2,2.7s3.9,4.7,4.5,9.2c0.1,0.8,0.2,1.5,0.2,2.1h1.7l-0.2-15c0-3.1,0.1-8.2,0.2-15.2h-1.7
			l-0.2,2.1c-0.7,4.5-2.2,7.6-4.5,9.3c-2.4,1.6-6.1,2.5-11.1,2.6h-14.8v-53.6l22.5,0.2c3.1,0,6.1,0.2,8.8,0.7s5.1,1,7,1.7
			c1.9,0.6,3.7,1.5,5.5,2.5c1.7,1,3.1,2,4.2,2.8c1.1,0.8,2.1,1.8,3,3.1c1,1.2,1.6,2.2,2,2.8s0.8,1.5,1.3,2.5l0.8,1.4l1.3-0.7
			l-7.6-19l-51.8-0.3c-4.1,0-9.2-0.1-15.3-0.2v1.6l2.5,0.2c3.5,0.5,5.9,1.4,7.1,2.7c1.3,1.3,2,4.2,2.1,8.6c0,15.9,0.1,29.7,0.2,41.2
			c0.1,6.6,0.1,15.7,0,27.1c-0.1,11.5-0.2,18.4-0.2,20.7c-0.1,4.4-0.8,7.3-2.1,8.6c-1.3,1.3-3.7,2.2-7.1,2.7
			c-0.8,0.1-1.6,0.2-2.5,0.2v1.6l15.3-0.2l58.7,0.2l9.2-19.7l-1.3-0.9C808.7,218.7,808.5,219.1,808.2,219.5z"/>
		<path class="st0" d="M550.4,225.5c-0.1-0.2-0.2-0.4-0.3-0.6L506.7,120H506h-0.5h-8.2v1c2.1,0,4,2.5,5.5,5.7l-0.2,0.6
			c-1.9,5-4.5,11.6-7.7,19.7c-3.3,8.1-6.7,16.8-10.3,25.9c-3.6,9.1-7.3,18.6-11.2,28.4c-1.6,4.1-3.2,7.9-4.6,11.5l0,0v0.1
			c-2,4.9-3.8,9.2-5.4,13c-0.1,0.3-0.2,0.5-0.4,0.8l-1.8,4.4l-10.2,6.2v1.4h11.7h1.4h10.3v-1.4l-9.6-5.8l9.5-24.2l5.6-14.2
			c0.8,3.3,1.8,5,6.3,8.4c4.5,3.2,11.6,4.3,21.3,4.8c9.2,0.3,16.6,1.9,22.2,4.7c5.5,2.8,10,6.7,13,11.4l0.1,0.3c0.4,1,0.6,2,0.8,2.9
			l0,0l1.8,7.1l-9.9,4.7v1.4h15h1.8h13.2v-1.4l-12.8-6L550.4,225.5z M513.3,203.6c-10.6-0.5-17.6-1.7-21-3.6
			c-7.9-4.6-9.3-11.1-6.6-21.7l18.7-47.9l1.6,3.7l0,0l0,0l31,73.8C532.6,205.2,524.2,204.1,513.3,203.6z"/>
		<path class="st0" d="M985.7,123.7l-39.2,0.3l-7.1,19.9l1.2,0.5c4.5-6.9,9.2-11.7,14.3-14.5c5-2.8,12.5-4.2,22.4-4.2h5.2
			c0.3,4.2,0.5,20.6,0.5,49.2c0,19.8-0.1,34.8-0.4,45.3v11.4l-11.8,5.5v1.4h15h1.8h13.2v-1.4l-11.9-5.6v-6.4c0-0.1,0-0.1,0-0.2
			l-0.3-50.1c0-6.5,0-12.6,0-18.1s0-10.1,0.1-13.7c0.1-3.5,0.1-6.6,0.2-9.1c0.1-2.5,0.1-4.4,0.1-5.8c0-1.4,0-2.2,0-2.4h5.5
			c5.3,0,9.7,0.4,13.4,1.1c3.6,0.8,6.8,2.1,9.5,4s4.8,3.7,6.2,5.3c1.5,1.6,3.4,4.2,5.9,7.7l1.2-0.5l-6.7-19.4L985.7,123.7z"/>
		<path class="st0" d="M442.1,220c-1.5,2.2-2.5,3.7-3.2,4.5s-2.1,2.2-4.3,4.1c-2.2,1.9-4.3,3.3-6.5,4.1c-2.1,0.8-5.1,1.6-9,2.4
			s-8.2,1.2-12.9,1.2h-17.3v-98.8c0-0.2,0-3.6,0-6.9l11.9-5.6v-1.4h-15H384h-13.2v1.4l11.7,5.5c0,3.3,0,6.7,0,7
			c0,15.4,0.1,28.8,0.2,40.3c0.1,5.8,0.1,13.4,0,22.5l0,0v25.4c-0.1,4.4-0.8,7.2-2.1,8.5c-1.3,1.3-3.7,2.2-7.1,2.7
			c-0.8,0.1-1.6,0.2-2.5,0.2v1.6l15.3-0.2l0,0l49.6,0.2l8.4-19.5l-1.2-0.7C442.8,219,442.5,219.5,442.1,220z"/>
		<path class="st0" d="M645.1,228.9l-53.8-105.2c-7.3,0-12.6-0.1-15.8-0.2v1.6l2.5,0.2c3.3,0.5,5.6,1.6,7,3.5s2.2,5.1,2.3,9.6
			l0.5,42.9c0,15.5-0.1,27.7-0.3,36.5l0,0v13.6l-9.9,5.9v1.4h11.7h1.4H601v-1.4l-9.8-5.9v-12.2l-0.3-37.9c0-20.7,0.1-34.4,0.2-41.2
			l50.9,99.3h2.7l45.7-105.9c0.3,21.3,0.5,37.2,0.5,47.8c0,9.4,0,17.5-0.1,24.4l0,0v26.1l-11.7,5.5v1.4h15h1.8h13.2v-1.4l-11.9-5.6
			v-19.4l-0.2-30.9c0-22.3,0.1-36.6,0.3-42.9c0.1-4.5,0.9-7.7,2.3-9.6c1.4-1.9,3.7-3,7-3.5c0.8-0.1,1.6-0.2,2.5-0.2v-1.6
			c-3.3,0.1-9.2,0.2-17.8,0.2L645.1,228.9z"/>
		<path class="st0" d="M1059.5,123.7h-13.2v1.4l12,5.7V148l0.4,38c0,20.1-0.4,43.9-0.4,43.9v1.7l-12,5.7v1.4h15h1.8h13.2v-1.4
			l-11.9-5.6v-2.8l0,0c0-0.1,0-0.2,0-0.3V186v-39l0,0v-16.2l11.9-5.6v-1.4h-15L1059.5,123.7L1059.5,123.7z"/>
		<path class="st0" d="M916.3,123.7h-13.1v1.4l13.3,6.2v12.5l0.4,37.4c0,16.6-0.1,31.1-0.3,43.4l-67.4-85.2
			c-6.2-7.7-11.1-12.9-14.8-15.7c-4.1,0-8.7-0.1-13.6-0.2v1c5.3,0.3,11.3,4.8,18,13.3c0.7,10.8,1,25.3,1,43.5
			c0,15.8-0.1,28.1-0.3,37.1l0,0v12.7l-13.2,6.2v1.4h15h1.8h13.2v-1.4L843,231v-12.6l0,0l-0.3-37.1c0-20.5,0.2-33.2,0.5-38
			l75.8,96.5h1.2l-0.5-58.5c0-15.6,0.1-27.5,0.2-35.7v-14.2l13.3-6.3v-1.4h-15H916.3z"/>
		<path class="st0" d="M250.3,123.8H240v1.4l9.4,5.7l-1.7,4.6c-0.2,0.6-0.4,1.2-0.6,1.8l-34.1,90l-36.5-83.4c-0.4-0.9-0.7-1.7-1-2.5
			l-4.7-11.3l10.6-5v-1.4h-15h-1.8h-13.2v1.4l13,6.1l12.1,28.4l0,0l34.4,78.9h1.5l6.4-17.8c4.3-11.8,9.7-26.3,16.2-43.6
			c4.5-11.8,8.4-22,11.9-30.7l0,0c0,0,0.1-0.2,0.2-0.4c1.6-4,3.1-7.7,4.5-11c0.1-0.2,0.1-0.3,0.2-0.4c0.5-1.1,0.9-2.3,1.4-3.4
			l10.2-6.2v-1.4h-11.7h-1.4V123.8z"/>
	</g>
</g>
</svg>
