<?xml version="1.0" encoding="utf-8"?>
<!-- Generator: Adobe Illustrator 21.0.0, SVG Export Plug-In . SVG Version: 6.00 Build 0)  -->
<svg version="1.1" id="Layer_1" xmlns="http://www.w3.org/2000/svg" xmlns:xlink="http://www.w3.org/1999/xlink" x="0px" y="0px"
	 viewBox="0 0 1055.6 603" style="enable-background:new 0 0 1055.6 603;" xml:space="preserve">
<style type="text/css">
	.st0{fill:#FFFFFF;}
</style>
<path class="st0" d="M922.1,320.2c-0.2-0.1-16.1-4.2-45.4-7.3c-5.1-0.6-12.5-0.8-16.6-1.6c-22.5-4.3-49.3-36.6-49.6-36.9l-1.2-1.5
	l-14.7,10.5l1.3,1.7c0.5,0.7,11.9,14.6,24.6,23.3c-1.5-0.1-3-0.3-4.5-0.4c-48.8-4.5-82.8-12.3-115.7-19.9
	c-7.7-1.8-15.2-3.5-22.8-5.1c-8.3-56.4-67.1-93.1-86.4-105.2c-23.7-14.6-34.5-23.5-40.7-33.3c5-1.3,9-3.5,11.3-7
	c1.4-2.1,1.8-4.7,1.1-7.6c-1.8-7.6-10.8-16.8-18.5-21.3c-9.8-5.8-21.7-1.6-25.9,1.3c-0.3,0.2-29.2,22.6-27,38.9
	c1.6,11.7,9.6,34.4,45.4,56.3c28,17.2,55.4,21.7,75.5,25c6,1,11.2,1.8,15.6,2.9c21.1,5,35.5,21.3,42.9,48.5
	c-8.1-1.7-16.3-3.3-24.9-4.7c-8.1-5.7-18-8.3-29.2-7.8c-4.4,0.2-8.3,1.2-11.9,2.7l0-0.1c-13.7-1.1-27.2-1.8-40.5-2
	c-6.8-10.1-22.2-20.7-44.3-19.3c-1.9-5-5.4-9.8-10.2-14c-11.2-9.8-27.7-14.4-45.3-12.8c-14.4,1.3-28.2,6.1-39.7,13.4
	c0.5-9.7,0.9-38.3-7.7-62.5c-13.5-37.8-44.8-79-65.1-75.5c-2.6,0.5-15.8,4.1-14.5,29.2c1.8,36.4,19.9,60,34.4,79
	c6.4,8.3,11.9,15.5,15.3,22.6c10.6,21.9,12.2,33.2,12.4,34.7c-3.7,7.9-5.3,16.3-4.4,24.3c0.4,3.3,1.2,6.3,2.4,9
	c-8.8,2.9-21.7,6.2-35.1,8.6c0,0-0.1,0-0.1,0c-2.7,0.2-5.3,0.3-7.9,0.3l0-0.1c-0.1,0-0.1,0-0.2,0c-0.2,0-0.3,0-0.5,0
	c-36.5-1-64.4-28.2-87.1-50.4c-6.4-6.2-12.5-12.2-18.1-16.8c-23.4-19.4-42.3-27-50.4-20.3c-1.9,1.6-3,4.7-2.9,8.7
	c0.2,12.3,10.5,33.1,38.9,54.6c14.5,10.2,28.1,17.3,41.2,22c0.6,0.3,1.2,0.5,1.8,0.8l0-0.1c16.9,6,32.9,8.1,48.1,8.3l0,0.1
	c4.5,0.2,9.5,0.1,14.8-0.3c1.2-0.1,2.5-0.1,3.8-0.2c-14.7,2.7-30,4.1-45.8,5.6c-25.2,2.3-51.3,4.8-77.6,12.5
	c-44.1,12.9-103.8,59.1-100.8,70c0.3,1.2,1.2,2.2,2.7,2.9c5,2.5,18.5,2.6,34.8,1.2c25.6-2.3,58.2-8.4,75.7-15.4
	c33.5-12.8,57.1-28.4,80-43.5c13.8-9.1,27.1-17.8,42.1-25.8c-27,18.5-55.1,50.5-52.5,102.9c1.4,27.8,10.3,43.7,17.6,52.1
	c9.3,10.8,19.9,14.3,26.2,14c0.1,0,0.3,0,0.4,0c4.4-0.4,7.2-3.6,7.5-8.3c0.3-4.2-0.9-8.4-2.6-14.2c-2.3-8.2-5.6-19.5-6.5-37.9
	c-2.2-44.1,27.5-99.2,57-124c8.6,9.9,24.5,14.7,46.1,13.6c1.3-0.1,2.6-0.2,3.9-0.3c30.7-2.7,56.8-18.4,66.1-39.8
	c16.3-1.3,32.7-1.7,49-1.3c-0.5,0.3-0.9,0.5-1.4,0.8c-9.8,3-24.7,9.8-40.5,16.9c-11,4.9-22.3,10.1-31.7,13.8
	c-41.1,16.4-83.8,57.6-80.5,124.1c1.5,30.2,15.6,49.9,23.2,60.5c1.1,1.5,2,2.8,2.8,4c1.5,2.2,2.6,4.3,3.7,6.2
	c2.9,5.2,5.2,9.3,10.2,9.1c0.1,0,0.1,0,0.2,0c8.3-0.7,9.8-18.6,12.1-43.4c0.7-8.2,1.5-16.7,2.5-25.2c0.7-6.1,1.3-12.7,1.9-19.7
	c2.6-29.6,5.9-66.5,24.5-91.8c16.8-22.8,44.7-38.3,60.7-45.8c-5.7,5.6-10.6,12.2-13,18.3c-10.3,1.8-20.1,7.9-27.5,17.4
	c-6.8,8.5-14.5,23.5-13.4,46.3c2.4,47.6,29.3,67.9,53.3,66.7c0.4,0,0.8-0.1,1.2-0.1c11.2-1,20.8-7.6,27.2-18.8
	c5.6-9.8,8.7-22.8,9.2-38c9.5,15.3,23.3,23.2,39.4,22.4c0.4,0,0.8-0.1,1.2-0.1c28.4-2.5,36.6-41.9,34.8-78.2
	c-0.7-13.1-4-24.6-9.8-33.5c15.5,3.5,31.5,7.5,47.1,11.4c27.7,6.9,56.1,14.1,81.4,18.2c-48.7,2.9-82.9,23.2-101.9,60.9
	c-18.9,40.3-14.9,92.3-6.4,106c1.5,2.5,3.2,3.7,5.1,3.8c0.3,0,0.5,0,0.7,0c12.4-1.1,29.5-40.6,41.2-79.9c1.6-5.4,3.6-10.8,6.1-16.1
	c0.2-0.4,0.5-0.8,0.7-1.2l-0.1,0c17.7-36.7,55.9-69.4,99.3-68.2l0-0.1c0.6,0.1,1.3,0.1,1.9,0.2c14.9,1.4,30.2,2.9,42.7,4.3
	c20.8,2.4,42.3,8.1,42.5,8.2l1.8,0.5l4.3-16.5L922.1,320.2z M491,330.3c-19.2,26.1-22.5,63.5-25.2,93.6c-0.6,7-1.2,13.6-1.9,19.6
	c-1.1,8.6-1.8,17.1-2.5,25.3c-1.6,19.5-3.4,39.6-8.6,40.1h-0.1c-2.6,0.2-4-2.2-6.8-7.2c-1-1.9-2.3-4.1-3.8-6.4
	c-0.8-1.2-1.8-2.6-2.9-4.1c-7.9-11-21-29.4-22.5-58.5c-3.2-64.6,38.3-104.6,78.2-120.5c3.1-1.2,6.3-2.6,9.7-4.1
	c-37.9,24.7-58,55.8-65.2,99.2c-6.3,35.8,4.7,65.7,5.2,67l3.5-1.3c-0.1-0.3-11.1-30.3-5-65.1c7.6-46.1,30.3-78.1,74.3-103.2
	C507.8,311.8,498.5,320.4,491,330.3z M589.1,181c13.2,8.2,45.1,28.1,66,57.8c-4.3-5.1-9.5-9.9-15.8-14.1
	c-10.4-6.9-20.6-11.3-31.4-15.9c-16.1-6.8-34.2-14.6-57.2-33.1c-15.1-12-23.5-24.1-26.7-29.3c7.8,0.2,15.8,0.1,22.6-1
	C553.1,156.3,563.7,165.2,589.1,181z M520.6,112.9c2.2-1.5,13-6.4,22-1.1c6.9,4,15.2,12.4,16.7,18.9c0.4,1.9,0.2,3.4-0.6,4.7
	c-5.3,8-24.1,7.6-39.1,7.2c-6.3-0.2-11.9-0.3-16.4,0.1c-3.4,0.3-6.1,0.9-7.9,2C497.6,132,517.6,115,520.6,112.9z M628.9,229.5
	c-4.6-1.1-9.8-2-15.9-3c-19.8-3.3-46.8-7.8-74.2-24.5c-30-18.4-39.7-37-42.7-48.8l0.1-0.1c-0.3-0.8-0.9-3.2,0.2-4.6
	c2-2.7,13.2-2.4,23.1-2.2c0,0,0.1,0,0.1,0c2.1,3.7,10.7,17.9,28.8,32.3c23.3,18.8,41.7,26.7,58,33.6c10.6,4.5,20.7,8.8,30.8,15.6
	c6.3,4.2,11.5,9.2,15.8,14.4C646.3,236,638.2,231.7,628.9,229.5z M598.5,275.4c-12.6-1.2-25.4-1.9-38.3-2c12.7,0,25.8,0.6,38.9,1.6
	C598.9,275.1,598.7,275.2,598.5,275.4z M521.9,260.9c16.2-2.3,27,4.4,32.1,8.7c-11.3,0.1-22.4,0.5-33.2,1.4
	C521.5,267.7,521.9,264.3,521.9,260.9z M559.7,269.6c-0.2,0-0.3,0-0.5,0l0,0c-9.1-9.8-22.9-14.3-37.5-12.4c-0.1-1.1-0.3-2.1-0.5-3.2
	C539.7,253.2,553,261.2,559.7,269.6z M352.6,102.4c18.1-3.3,48.2,37.4,61,73.2c9.6,27,7.6,59.8,7.3,64c-2.8,2-5.5,4.2-7.9,6.6
	c-1.3-33-20.2-65.8-41.3-99.1c-14.1-22.3-19-39.5-20.2-44.3C352,102.6,352.4,102.5,352.6,102.4z M390.6,228.2
	c-3.6-7.5-9.5-15.2-15.7-23.3c-14.2-18.6-31.9-41.8-33.7-77c-0.7-14.3,3.4-20.5,7-23.3c1.6,6.1,6.8,22.8,20.4,44.4
	c21.6,34.2,40.9,67.6,40.8,100.9c-0.8,0.8-1.5,1.7-2.2,2.5c-1.8,2.2-3.4,4.5-4.9,6.9C401.1,253.7,398,243.5,390.6,228.2z
	 M236.3,279.4c-27.3-20.7-37.2-40.9-37.4-51.8c-0.1-2.8,0.5-4.9,1.6-5.8c0.6-0.5,1.3-0.8,2.1-1.1l0,0.1c3.1-1,10.1-0.2,13.9,9.8
	l0.7,1.8c4.9,12.9,14.7,38.9,35.6,57.5C247.4,286.8,242,283.4,236.3,279.4z M278.5,301.7L278.5,301.7
	c-36.7-14.6-51.6-53.8-57.9-70.6l-0.7-1.8c-1-2.7-2.3-4.9-3.7-6.6c7.5,3,17.4,9.1,30,19.5c5.5,4.5,11.5,10.4,17.9,16.6
	c18.1,17.7,39.4,38.5,65.8,47.3c-44-5.4-75.1-34.5-87.6-48.4l-2.7,2.5c12.7,14.1,44.1,43.5,88.6,49.4c-1.7,0-2.7,0-2.8,0l0,0.1
	C310.5,309.6,295,307.5,278.5,301.7z M221.5,334.5c26-7.6,51.9-10,76.9-12.4c16.3-1.5,32-3.1,47.1-5.9c-13.2,4.3-28,8.6-43.1,13.1
	c-18.8,5.5-38.3,11.2-55.6,17.1c-20,6.8-40.6,16.4-60.4,25.7c-22.5,10.6-43.8,20.6-62.8,25.8C128.9,386.8,178.7,347,221.5,334.5z
	 M310.8,343c-22.7,15-46.1,30.5-79.3,43.1c-30.7,12.5-93,18.8-106,15.1c19-5.4,40.1-15.3,62.4-25.7c19.7-9.3,40.1-18.8,60-25.6
	c17.3-5.9,36.6-11.6,55.4-17.1c16.7-4.9,32.9-9.6,47.2-14.3C336.5,326.1,323.9,334.4,310.8,343z M322.9,473
	c-6.9-8-15.4-23.1-16.7-49.9c-3.5-71.7,52.3-104,80.7-115.8c-24,17.1-67.1,56.8-64,120c1.9,38.1,15.7,53.3,22.5,58.4
	C339.8,485.7,331,482.3,322.9,473z M341.5,429c1,18.8,4.3,30.3,6.7,38.7c1.6,5.4,2.7,9.3,2.5,12.9c-0.1,1.2-0.4,2.5-1.2,3.5
	c-4-2.5-20.9-15.4-23-57c-3.4-67.6,47.7-107.6,68.8-121.1C366.7,333,339.4,386.1,341.5,429z M447.9,314.7
	c-13.8,0.7-46.2-0.5-49.2-26.5c-1.2-11.2,2.7-23.2,11.2-33.6c12.4-15.3,32.9-25.6,54.8-27.6c0.1,0,0.3,0,0.4,0
	c16.5-1.4,31.8,2.9,42.1,11.9c6.6,5.7,10.5,12.7,10.8,19.6c0.3,6.2-0.7,12.2-3.1,17.9C506,297.8,479.1,313.1,447.9,314.7z
	 M594.6,278.8c-10.2,10.2-15.3,26.9-15.8,44.1c-0.8-1.1-1.6-2.2-2.4-3.3c-5.9-7.3-13.3-12.2-21-14.1c5-13.6,13.8-22.7,27-27.5
	l0.4-0.1C586.7,278.1,590.6,278.4,594.6,278.8z M572.7,278.5c-9.8,5.6-16.8,14.5-21,26.2c-1.8-0.2-3.6-0.3-5.4-0.2c0,0-0.1,0-0.1,0
	C551.1,294.4,562.9,282.9,572.7,278.5z M579.5,414.7c-6.1,10.7-14.9,16.6-25.4,17.1c-22.2,1.1-47.1-18.2-49.4-63.2
	c-1.1-21.7,6.3-35.8,12.6-43.8c7.6-9.7,17.8-15.6,28.1-16.5c0.4-0.1,0.7-0.1,1,0c9.7-0.5,19.6,4.5,27,13.7
	c8.7,10.8,13.8,26.3,14.7,44.9C589.1,386.6,586.1,403.1,579.5,414.7z M632.1,397.2c-0.3,0.1-0.7,0.1-1,0.1
	c-16.5,0.8-30.3-8.5-39.2-26.2c0-1.5-0.1-3-0.1-4.5c-0.8-14.7-4-27.6-9.5-37.9l0.1,0c-0.8-27,9.7-54.9,34.5-56
	c13.7-0.7,25.3,3.8,33.5,13.1c7.9,8.9,12.4,21.7,13.2,37C665.3,357.4,657.9,395,632.1,397.2z M682.9,485.6c-0.4,0-1.2-0.5-2.1-2
	c-2.2-3.6-4.2-10.8-5.4-20.2l0.1,0c0-0.1,0.3-10.8,7.1-22.4c7.4-12.8,18.5-21,28.2-28.3c4.3-3.2,8.4-6.3,12-9.6
	c-0.6,1.7-1.2,3.5-1.7,5.2C706.7,457,690.2,485.7,682.9,485.6z M727.4,392.1c-3.9,6.5-10.8,11.7-18.7,17.6
	c-10.1,7.4-21.4,15.9-29.2,29.4c-2.3,3.9-3.9,7.7-5,11.1c-0.7-20.5,2.4-46.5,13-69.1c17.6-34.9,49.1-54.5,93.8-58.4
	c2.8-0.2,5.6-0.4,8.5-0.5c-40.3,7.9-68.9,32.5-81,57.8l3.3,1.6c12.9-26.9,44.9-52.9,90.2-57.5C769.1,334.1,741.5,361.9,727.4,392.1z
	 M916.9,332.5c-6.2-1.8-23.5-5.8-41.3-7.8c-12.5-1.4-27.9-2.9-42.7-4.3c-10.3-1-20.1-1.9-27.9-2.8c-29.2-3.1-64.9-12-99.5-20.7
	c-17-4.3-34.6-8.7-51.3-12.3c-0.3-0.4-0.6-0.8-1-1.2c-0.6-0.7-1.2-1.3-1.8-1.9c16.5,3,31.9,6.5,48.1,10.2
	c33,7.6,67.2,15.4,116.2,19.9c4.1,0.4,8.1,0.7,12,1c0.8,0.1,1.6,0.1,2.4,0.2c0.7,0,1.9-0.2,2.1-1.4c0.1-1.1-1.3-1.9-2.4-2.3
	c-11.8-5.2-25.2-20-29.2-24.9l8-5.8c5.3,6,27.2,32.3,49.3,36.7c5.8,1.1,12.1,0.6,18.4,1.3c24,2.6,37.7,5.3,43,6.7L916.9,332.5z"/>
</svg>
